<svg width="68" height="12" viewBox="0 0 68 12" fill="none" xmlns="http://www.w3.org/2000/svg">
<path fill-rule="evenodd" clip-rule="evenodd" d="M22.5272 5.31023H18.23V6.48867C18.23 6.86322 18.5273 7.16825 18.8916 7.16825H21.2837V7.77915C20.9657 8.47427 19.9533 9.59546 18.0642 9.59546C15.9662 9.59546 14.5011 8.07355 14.5011 5.89332C14.5011 3.72289 15.9359 2.20671 17.9901 2.20671C19.1809 2.20671 20.2849 2.78488 20.8708 3.7139L20.9593 3.85456L23.0876 3.27474L22.9457 3.0155C21.935 1.17629 20.1303 0.103342 17.9901 0.0722656C16.4588 0.0722656 15.0375 0.656988 13.9861 1.71848C12.918 2.79715 12.3305 4.27981 12.3305 5.89332C12.3305 7.50764 12.9188 8.98948 13.9861 10.069C15.0367 11.1305 16.4588 11.7152 17.9901 11.7152C18.0347 11.7152 18.0793 11.7144 18.1152 11.7127C18.1335 11.7127 18.1511 11.7127 18.1638 11.7119H18.175L18.1751 11.7119C18.1989 11.7111 18.2228 11.7103 18.2435 11.7086C19.5125 11.6563 20.6859 11.2024 21.636 10.3985C22.2833 9.85225 22.7879 9.17594 23.1354 8.39085L23.1553 8.34506V5.989C23.1545 5.62753 22.8787 5.32904 22.5272 5.31023ZM39.5019 0.266911C37.9706 0.266911 36.5494 0.850815 35.498 1.91313C34.4307 2.9918 33.8424 4.47445 33.8424 6.08796C33.8424 7.70147 34.4307 9.18412 35.498 10.2628C36.5494 11.3243 37.9706 11.909 39.5019 11.909C41.0332 11.909 42.4568 11.3243 43.5122 10.2628C44.5851 9.18249 45.1758 7.69983 45.1758 6.08796C45.1758 4.47527 44.5851 2.99261 43.5122 1.91231C42.4576 0.851632 41.0332 0.266911 39.5019 0.266911ZM39.5019 9.77457C37.4477 9.77457 36.0129 8.25838 36.0129 6.08796C36.0129 3.91754 37.4477 2.40135 39.5019 2.40135C41.5648 2.40135 43.0052 3.91754 43.0052 6.08796C43.006 8.25838 41.5648 9.77457 39.5019 9.77457ZM45.1966 2.54037V1.16157C45.1966 0.786203 45.4931 0.481984 45.8582 0.481984H54.074V1.86078C54.074 2.23533 53.7767 2.54037 53.4116 2.54037H50.6751V11.6939H48.5644V2.54037H45.1966ZM55.7797 1.16157V11.6939H57.2289C57.5939 11.6939 57.8905 11.3897 57.8905 11.0152V0.481984H56.4413C56.077 0.481984 55.7797 0.786203 55.7797 1.16157ZM63.8747 4.90918L63.8751 4.90933L63.8756 4.90948C63.9603 4.93716 64.0457 4.96509 64.1312 4.99375L64.1316 4.99391C65.6174 5.48212 67.6536 6.15118 67.6544 8.46937C67.6544 10.495 65.9549 11.9098 63.523 11.9098C61.5246 11.9098 59.9519 10.8459 59.3142 9.06309C59.3142 9.06309 59.2616 8.93388 59.2616 8.79813C59.2616 8.52662 59.4138 8.26329 59.6554 8.17742L61.1763 7.75053L61.2137 8.00487C61.3484 8.92488 62.1567 9.91441 63.6122 9.91441C64.7226 9.91441 65.4982 9.35177 65.4982 8.54625C65.4982 7.58653 64.28 7.1954 62.9905 6.78135L62.9857 6.77981C62.8151 6.72502 62.6453 6.67023 62.4787 6.61462C61.3564 6.22617 59.48 5.57602 59.48 3.50782C59.48 1.66043 61.1858 0.266911 63.448 0.266911C65.2336 0.266911 66.7664 1.26789 67.3531 2.81679C67.3579 2.8266 67.3618 2.83642 67.3658 2.84705L67.3659 2.84722C67.3691 2.85534 67.3722 2.86346 67.3746 2.8724C67.3969 2.94109 67.4089 3.01469 67.4089 3.08911C67.4089 3.37943 67.2319 3.63458 66.9665 3.73026L65.5365 4.13262L65.4886 3.89219C65.283 2.86504 64.4588 2.20181 63.3882 2.20181C62.5329 2.20181 61.6202 2.52893 61.6202 3.44649C61.6202 4.17105 62.6087 4.4949 63.7533 4.86945L63.8747 4.90918ZM7.13994 0.481985H5.75296L0.382812 11.6939H2.30943C2.56212 11.6939 2.79647 11.5435 2.90647 11.3112L3.73308 9.56684C3.77054 9.49651 3.84308 9.45235 3.9212 9.45235H8.9725C9.03467 9.45235 9.09286 9.48016 9.13272 9.52759L10.0056 11.3496C10.1227 11.5631 10.3435 11.6947 10.5827 11.6947H12.5109L7.20211 0.611196L7.13994 0.481985ZM6.44645 3.84393L8.12437 7.39397H4.76853L6.44645 3.84393ZM28.5105 0.481984C31.133 0.481984 32.7623 1.89431 32.7623 4.16778C32.7623 5.66679 32.0576 6.80761 30.7727 7.40951L33.3769 11.6939H31.3602C31.133 11.6939 30.9249 11.5778 30.803 11.3823C30.7982 11.3758 30.7942 11.3693 30.7902 11.3619L27.4272 5.79682H28.705C29.9038 5.79682 30.5917 5.2031 30.5917 4.16778C30.5917 3.13327 29.9038 2.53955 28.705 2.53955H26.9681V11.6939H25.5197C25.1546 11.6939 24.8573 11.3897 24.8573 11.0152V1.16157C24.8573 0.786203 25.1546 0.481984 25.5197 0.481984H28.5105Z" fill="#323E48"/>
</svg>
